<?xml version="1.0" encoding="UTF-8" standalone="no"?>
<svg width="256px" height="78px" viewBox="0 0 256 78" version="1.1" xmlns="http://www.w3.org/2000/svg" xmlns:xlink="http://www.w3.org/1999/xlink">
    <!-- Generator: Sketch 40.1 (33804) - http://www.bohemiancoding.com/sketch -->
    <title>Group 3</title>
    <desc>Created with Sketch.</desc>
    <defs>
        <linearGradient x1="50%" y1="0%" x2="50%" y2="100%" id="linearGradient-1">
            <stop stop-color="#3D3D3D" offset="0%"></stop>
            <stop stop-color="#000000" offset="100%"></stop>
        </linearGradient>
    </defs>
    <g id="Page-1" stroke="none" stroke-width="1" fill="none" fill-rule="evenodd">
        <g id="Group-3">
            <g id="noun_38251-copy-5">
                <path d="M68.9496159,17.6164225 C68.9464939,17.59686 68.9433718,17.5772975 68.9402498,17.557735 C68.9262007,17.46853 68.9074686,17.379325 68.8832729,17.291685 C68.8785899,17.2768175 68.8746874,17.2611675 68.8707848,17.2463 C68.8419061,17.1484875 68.8067834,17.0530225 68.7654166,16.95834 C68.7560505,16.93956 68.7466845,16.92078 68.7373184,16.902 C68.7154643,16.85505 68.6936101,16.8081 68.6686339,16.7619325 C68.6538043,16.73611 68.6374137,16.712635 68.6218036,16.687595 C68.606974,16.662555 68.5929249,16.63908 68.5765343,16.61404 C68.5258014,16.53579 68.4711661,16.46067 68.4134087,16.390245 C68.4087256,16.3847675 68.4040426,16.377725 68.3993596,16.3722475 C68.3314556,16.29165 68.2588686,16.218095 68.1839401,16.1484525 C68.1691105,16.13515 68.1542809,16.12263 68.1378903,16.11011 C68.0707668,16.05064 68.0005213,15.9966475 67.9271538,15.945785 C67.9123242,15.9356125 67.8990556,15.92544 67.884226,15.9152675 C67.7983704,15.858145 67.7078318,15.8072825 67.6165126,15.7618975 C67.6102686,15.75955 67.6048051,15.754855 67.600122,15.751725 L51.5857119,8.04097 L35.5744238,0.3309975 C34.9125552,0.01252 34.1429769,0.01252 33.4803278,0.3309975 L17.4666982,8.0417525 L1.45306859,15.751725 C1.44760505,15.7540725 1.44214152,15.757985 1.43667798,15.761115 C1.34379783,15.8072825 1.25403971,15.858145 1.16740361,15.9152675 C1.15257401,15.9246575 1.13930542,15.93483 1.12447581,15.9450025 C1.05188881,15.9950825 0.981643321,16.0498575 0.91373935,16.1093275 C0.898129242,16.12263 0.882519134,16.13515 0.867689531,16.1484525 C0.792761011,16.2173125 0.720174007,16.2908675 0.653050542,16.3706825 C0.646806498,16.3785075 0.64134296,16.3863325 0.635098917,16.3941575 C0.578902527,16.4630175 0.525828159,16.5365725 0.475875812,16.6116925 C0.461826715,16.6382975 0.446216606,16.6633375 0.430606498,16.68916 C0.415776895,16.7134175 0.399386282,16.7368925 0.385337184,16.7619325 C0.360361011,16.8073175 0.34006787,16.8527025 0.318994224,16.89887 C0.308847653,16.919215 0.297920578,16.9387775 0.288554513,16.959905 C0.247187726,17.053805 0.212064982,17.14927 0.183966787,17.2455175 C0.179283755,17.26195 0.175381227,17.279165 0.170698195,17.29638 C0.147283032,17.382455 0.127770397,17.4693125 0.114501805,17.55617 C0.111379783,17.5772975 0.107477256,17.5976425 0.104355235,17.61877 C0.0903061372,17.723625 0.082501083,17.82848 0.082501083,17.9325525 L0.082501083,17.93803 L0.082501083,37.6906775 L0.082501083,37.7720575 L0.082501083,57.5239225 C0.082501083,58.4050175 0.559389892,59.2172525 1.32818773,59.6444975 L16.8820996,68.291905 C17.0210296,68.4194525 17.1732282,68.53448 17.3418173,68.6291625 L33.3546664,77.5301 C33.3554469,77.5308825 33.3562274,77.531665 33.3577884,77.531665 C33.4428635,77.58018 33.5318412,77.62087 33.6223798,77.6576475 C33.6379899,77.6639075 33.6528195,77.669385 33.6684296,77.67408 C33.7402361,77.7014675 33.8151646,77.7249425 33.8908736,77.747635 C33.9142888,77.753895 33.939265,77.760155 33.9626801,77.7656325 C34.0321451,77.782065 34.1023906,77.7953675 34.1741971,77.8063225 C34.1976123,77.8094525 34.2218079,77.8141475 34.2452231,77.8172775 C34.3381032,77.8282325 34.4309834,77.8344925 34.5262051,77.8344925 C34.6214267,77.8344925 34.7150874,77.82745 34.807187,77.8172775 C34.8313827,77.8141475 34.8547978,77.8094525 34.8789935,77.8063225 C34.9508,77.7953675 35.021826,77.7828475 35.0905105,77.7656325 C35.1139256,77.7593725 35.1389018,77.7531125 35.162317,77.747635 C35.2388065,77.725725 35.312174,77.7014675 35.3855415,77.67408 C35.4003711,77.6686025 35.4159812,77.663125 35.4315913,77.6576475 C35.5213495,77.62087 35.6103271,77.5793975 35.6954022,77.531665 C35.6969632,77.531665 35.6977437,77.5308825 35.6993047,77.5301 L51.7129343,68.62838 C51.882304,68.5336975 52.033722,68.41867 52.1718715,68.2911225 L67.7265639,59.643715 C68.4945812,59.21647 68.9722505,58.404235 68.9722505,57.52314 L68.9722505,37.7720575 L68.9722505,37.6906775 L68.9722505,17.9372475 L68.9722505,17.933335 C68.9722505,17.8276975 68.9628845,17.72206 68.9496159,17.6164225 L68.9496159,17.6164225 Z" id="Shape" fill="url(#linearGradient-1)"></path>
                <polygon id="Path" fill="#B91913" points="52.9586209 62.3112575 52.9586209 48.10184 64.136239 41.8880075 64.136239 56.097425"></polygon>
                <polygon id="Path" fill="#B91913" points="52.9586209 42.5578275 52.9586209 28.2678125 64.136239 22.05398 64.136239 36.343995"></polygon>
                <polygon id="Path" fill="#B91913" points="36.9457718 57.0043425 48.1226094 50.79051 48.1226094 65.080525 36.9457718 71.293575"></polygon>
                <polygon id="Path" fill="#B91913" points="32.1089798 36.3432125 20.9313617 42.557045 20.9313617 28.2678125 32.1089798 22.05398"></polygon>
                <polygon id="Path" fill="#E7372D" points="4.91851264 41.887225 16.0953502 48.1010575 16.0953502 62.310475 4.91851264 56.0966425 4.91851264 41.887225"></polygon>
                <polygon id="Path" fill="#E7372D" points="20.9321422 50.7897275 32.1097603 57.0043425 32.1097603 71.293575 20.9321422 65.080525"></polygon>
                <polygon id="Path" fill="#E7372D" points="48.1226094 42.5578275 36.9457718 36.343995 36.9457718 22.05398 48.1226094 28.2678125"></polygon>
                <polygon id="Path" fill="#E7372D" points="4.91851264 22.05398 16.0953502 28.2678125 16.0953502 42.5578275 4.91851264 36.343995 4.91851264 22.05398"></polygon>
                <polygon id="Path" fill="#F7412D" points="34.5269856 5.20519 44.9553184 10.2264925 34.5269856 15.247795 24.0986527 10.2264925"></polygon>
                <polygon id="Path" fill="#F7412D" points="34.5269856 52.804665 23.4992245 46.6737775 34.5269856 40.54289 45.5539661 46.6737775"></polygon>
                <polygon id="Path" fill="#F7412D" points="50.5406152 12.915945 61.2897357 18.0921825 50.5406152 24.068135 39.7914946 18.0921825"></polygon>
                <polygon id="Path" fill="#F7412D" points="18.513356 12.915945 29.2624765 18.0921825 18.513356 24.068135 7.76423538 18.0921825"></polygon>
            </g>
            <text id="Glossa" font-family="Roboto-Regular, Roboto" font-size="64" font-weight="normal" letter-spacing="-3.03443766" fill="#000000">
                <tspan x="77" y="61">Glossa</tspan>
            </text>
        </g>
    </g>
</svg>