<?xml version="1.0" encoding="UTF-8" standalone="no"?>
<svg width="487px" height="188px" viewBox="0 0 487 188" version="1.1" xmlns="http://www.w3.org/2000/svg" xmlns:xlink="http://www.w3.org/1999/xlink">
    <!-- Generator: Sketch 40.3 (33839) - http://www.bohemiancoding.com/sketch -->
    <title>Group 4</title>
    <desc>Created with Sketch.</desc>
    <defs></defs>
    <g id="Page-1" stroke="none" stroke-width="1" fill="none" fill-rule="evenodd">
        <g id="Group-4" fill="#9E9E9E">
            <g id="noun_38251-copy-7">
                <path d="M166.878056,42.4600953 C166.8705,42.4129446 166.862943,42.365794 166.855387,42.3186433 C166.821384,42.1036364 166.776047,41.8886295 166.717487,41.6773946 C166.706152,41.6415601 166.696707,41.6038396 166.687262,41.5680051 C166.617367,41.3322519 166.53236,41.1021568 166.43224,40.8739477 C166.409572,40.8286831 166.386903,40.7834185 166.364234,40.7381538 C166.311341,40.6249923 166.258448,40.5118308 166.197998,40.4005553 C166.162106,40.3383164 166.122436,40.2817356 166.084655,40.2213828 C166.048763,40.16103 166.01476,40.1044492 165.97509,40.0440964 C165.852302,39.8554938 165.720069,39.6744354 165.580279,39.5046931 C165.568945,39.4914909 165.55761,39.4745167 165.546276,39.4613145 C165.381929,39.2670538 165.206247,39.0897674 165.024898,38.9219112 C164.989006,38.8898487 164.953115,38.8596723 164.913445,38.8294959 C164.750986,38.6861579 164.580972,38.5560222 164.403401,38.4334305 C164.367509,38.4089122 164.335395,38.3843938 164.299503,38.3598755 C164.091708,38.2221956 163.872578,38.099604 163.65156,37.9902145 C163.636447,37.9845564 163.623224,37.9732403 163.61189,37.9656962 L124.852375,19.3807995 L86.1004171,0.797788846 C84.4985032,0.0301764103 82.6359006,0.0301764103 81.0320977,0.797788846 L42.2744724,19.3826855 L3.51684717,37.9656962 C3.50362383,37.9713542 3.49040048,37.9807844 3.47717714,37.9883285 C3.25238026,38.099604 3.03513959,38.2221956 2.82545511,38.3598755 C2.78956318,38.3825078 2.75744934,38.4070262 2.7215574,38.4315445 C2.54587581,38.5522501 2.37586137,38.6842719 2.21151408,38.8276099 C2.17373309,38.8596723 2.13595211,38.8898487 2.10006017,38.9219112 C1.91871143,39.0878814 1.74302984,39.2651678 1.5805716,39.4575424 C1.56545921,39.4764027 1.55223586,39.4952629 1.53712347,39.5141232 C1.40111191,39.6800935 1.27265656,39.8573799 1.1517574,40.0384383 C1.11775451,40.1025632 1.07997353,40.162916 1.04219254,40.2251549 C1.0063006,40.2836217 0.966630566,40.3402024 0.932627677,40.4005553 C0.872178099,40.5099447 0.823062816,40.6193342 0.772058484,40.7306097 C0.747500842,40.7796464 0.721054152,40.8267971 0.69838556,40.8777197 C0.598265945,41.1040428 0.513258724,41.3341379 0.445252948,41.5661191 C0.433918652,41.6057256 0.424473406,41.6472182 0.41313911,41.6887108 C0.356467629,41.8961736 0.309241396,42.1055224 0.277127557,42.3148713 C0.26957136,42.365794 0.260126113,42.4148306 0.252569916,42.4657533 C0.218567028,42.7184808 0.199676534,42.9712082 0.199676534,43.2220496 L0.199676534,43.2352518 L0.199676534,90.8441971 L0.199676534,91.0403437 L0.199676534,138.647403 C0.199676534,140.771068 1.35388568,142.728762 3.21459928,143.758532 L40.8595745,164.601002 C41.1958253,164.908424 41.5641899,165.18567 41.9722245,165.413879 L80.7279608,186.867421 C80.7298498,186.869307 80.7317389,186.871193 80.735517,186.871193 C80.9414233,186.988126 81.156775,187.086199 81.3759047,187.174843 C81.4136857,187.189931 81.4495776,187.203133 81.4873586,187.214449 C81.6611511,187.28046 81.8424999,187.337041 82.0257377,187.391736 C82.0824091,187.406824 82.1428587,187.421912 82.1995302,187.435114 C82.3676556,187.474721 82.53767,187.506783 82.7114626,187.533188 C82.7681341,187.540732 82.8266946,187.552048 82.8833661,187.559592 C83.1081629,187.585996 83.3329598,187.601084 83.5634238,187.601084 C83.7938878,187.601084 84.0205738,187.58411 84.2434816,187.559592 C84.3020421,187.552048 84.3587136,187.540732 84.4172741,187.533188 C84.5910667,187.506783 84.7629702,187.476607 84.9292065,187.435114 C84.985878,187.420026 85.0463276,187.404938 85.102999,187.391736 C85.2881259,187.338927 85.4656965,187.28046 85.6432671,187.214449 C85.6791591,187.201247 85.7169401,187.188045 85.7547211,187.174843 C85.9719617,187.086199 86.1873134,186.98624 86.3932197,186.871193 C86.3969978,186.871193 86.3988869,186.869307 86.402665,186.867421 L125.16029,165.411993 C125.570214,165.183784 125.93669,164.906538 126.271051,164.599116 L163.917916,143.756646 C165.77674,142.726876 166.932838,140.769182 166.932838,138.645517 L166.932838,91.0403437 L166.932838,90.8441971 L166.932838,43.2333658 L166.932838,43.2239356 C166.932838,42.9693222 166.91017,42.7147087 166.878056,42.4600953 L166.878056,42.4600953 Z M11.9042262,53.1557467 L38.9554128,68.1326763 L38.9554128,102.575277 L11.9042262,87.5983469 L11.9042262,53.1557467 L11.9042262,53.1557467 Z M44.8076876,31.1307392 L70.8236751,43.6067988 L44.8076876,58.0103767 L18.7917001,43.6067988 L44.8076876,31.1307392 L44.8076876,31.1307392 Z M122.322938,31.1307392 L148.338926,43.6067988 L122.322938,58.0103767 L96.3069507,43.6067988 L122.322938,31.1307392 L122.322938,31.1307392 Z M83.5653129,127.272782 L56.8749348,112.495771 L83.5653129,97.7187605 L110.253802,112.495771 L83.5653129,127.272782 L83.5653129,127.272782 Z M116.470663,102.575277 L89.4194768,87.5983469 L89.4194768,53.1557467 L116.470663,68.1326763 L116.470663,102.575277 L116.470663,102.575277 Z M77.713038,87.5964609 L50.6599625,102.573391 L50.6599625,68.1326763 L77.713038,53.1557467 L77.713038,87.5964609 L77.713038,87.5964609 Z M50.6618515,122.416266 L77.7149271,137.395082 L77.7149271,171.835796 L50.6618515,156.860753 L50.6618515,122.416266 L50.6618515,122.416266 Z M89.4194768,137.395082 L116.470663,122.418152 L116.470663,156.860753 L89.4194768,171.835796 L89.4194768,137.395082 L89.4194768,137.395082 Z M128.175213,102.575277 L128.175213,68.1326763 L155.228289,53.1557467 L155.228289,87.5983469 L128.175213,102.575277 L128.175213,102.575277 Z M83.5653129,12.5458426 L108.804901,24.6484691 L83.5653129,36.7510956 L58.3257247,24.6484691 L83.5653129,12.5458426 L83.5653129,12.5458426 Z M11.9042262,100.958953 L38.9554128,115.935882 L38.9554128,150.184222 L11.9042262,135.207292 L11.9042262,100.958953 L11.9042262,100.958953 Z M128.175213,150.186108 L128.175213,115.937768 L155.228289,100.960839 L155.228289,135.209178 L128.175213,150.186108 L128.175213,150.186108 Z" id="Shape"></path>
            </g>
            <path d="M246.759691,124.093137 C245.003831,126.982989 241.757369,129.689899 237.020206,132.213947 C232.283043,134.737995 226.311382,136 219.105042,136 C209.92336,136 202.406199,132.835842 196.553334,126.507432 C190.700469,120.179022 187.77408,111.985134 187.77408,101.925522 L187.77408,87.2751423 C187.77408,77.3984326 190.609019,69.3508639 196.278982,63.1321948 C201.948945,56.9135257 209.283207,53.8042378 218.281987,53.8042378 C226.951543,53.8042378 233.837701,56.0904789 238.940668,60.6630297 C244.043634,65.2355805 246.52192,71.0517779 246.375598,78.1117963 L246.210987,78.4410183 L240.17525,78.4410183 C240.17525,72.917377 238.273098,68.3631847 234.468735,64.7783049 C230.664373,61.193425 225.268844,59.401012 218.281987,59.401012 C211.112227,59.401012 205.332609,61.9981819 200.942961,67.1925996 C196.553312,72.3870173 194.35852,79.0445514 194.35852,87.1654016 L194.35852,101.925522 C194.35852,110.265854 196.644761,117.106288 201.217312,122.447027 C205.789863,127.787767 211.75238,130.458096 219.105042,130.458096 C224.701844,130.458096 229.274326,129.616759 232.822625,127.934061 C236.370925,126.251362 238.840065,124.29434 240.230121,122.062935 L240.230121,101.5963 L218.720949,101.5963 L218.720949,95.9995256 L246.759691,95.9995256 L246.759691,124.093137 Z M267.824302,134.847723 L261.294732,134.847723 L261.294732,49.25 L267.824302,49.25 L267.824302,134.847723 Z M276.98205,104.284946 C276.98205,95.5422291 279.378031,88.372577 284.170064,82.7757748 C288.962097,77.1789726 295.308703,74.3806135 303.210071,74.3806135 C311.148019,74.3806135 317.512914,77.1789726 322.304947,82.7757748 C327.09698,88.372577 329.492961,95.5422291 329.492961,104.284946 L329.492961,106.095667 C329.492961,114.874965 327.106125,122.053762 322.332382,127.632274 C317.558639,133.210786 311.221179,136 303.319811,136 C295.345283,136 288.962097,133.210786 284.170064,127.632274 C279.378031,122.053762 276.98205,114.874965 276.98205,106.095667 L276.98205,104.284946 Z M283.566491,106.095667 C283.566491,112.972784 285.304034,118.752401 288.779172,123.434693 C292.254311,128.116985 297.101142,130.458096 303.319811,130.458096 C309.428739,130.458096 314.229845,128.116985 317.723274,123.434693 C321.216703,118.752401 322.963391,112.972784 322.963391,106.095667 L322.963391,104.284946 C322.963391,97.5175711 321.207558,91.7745334 317.695839,87.055661 C314.18412,82.3367885 309.355579,79.9773877 303.210071,79.9773877 C297.064562,79.9773877 292.254311,82.3367885 288.779172,87.055661 C285.304034,91.7745334 283.566491,97.5175711 283.566491,104.284946 L283.566491,106.095667 Z M373.438502,119.64864 C373.438502,116.868529 372.295382,114.445114 370.009106,112.378321 C367.722831,110.311528 363.598452,108.619709 357.635846,107.302815 C350.612408,105.839598 345.390633,103.836851 341.970365,101.294513 C338.550097,98.7521747 336.839989,95.1947836 336.839989,90.6222328 C336.839989,86.0862624 338.751286,82.2453773 342.573939,79.0994624 C346.396591,75.9535474 351.453756,74.3806135 357.745586,74.3806135 C364.36664,74.3806135 369.652429,76.054142 373.603113,79.4012492 C377.553797,82.7483564 379.43766,86.8727353 379.254758,91.7745098 L379.145017,92.1037318 L373.05441,92.1037318 C373.05441,88.8480756 371.65523,86.0131367 368.856829,83.5988299 C366.058428,81.184523 362.354717,79.9773877 357.745586,79.9773877 C352.990133,79.9773877 349.405307,81.0199137 346.991001,83.1049968 C344.576694,85.19008 343.369558,87.6226405 343.369558,90.4027514 C343.369558,93.1097015 344.402939,95.3502178 346.469732,97.1243675 C348.536525,98.8985172 352.660904,100.462306 358.842993,101.815781 C365.79327,103.352158 371.051625,105.49208 374.618214,108.23561 C378.184804,110.979141 379.968072,114.673706 379.968072,119.319418 C379.968072,124.257773 377.965325,128.272412 373.95977,131.363457 C369.954216,134.454501 364.659281,136 358.074808,136 C350.868468,136 345.207735,134.280747 341.09244,130.842188 C336.977144,127.40363 335.029266,123.306686 335.248749,118.551233 L335.35849,118.222011 L341.394226,118.222011 C341.650289,122.501919 343.396977,125.611207 346.634343,127.549968 C349.871709,129.48873 353.68516,130.458096 358.074808,130.458096 C362.830261,130.458096 366.579697,129.39728 369.323227,127.275617 C372.066758,125.153953 373.438502,122.611653 373.438502,119.64864 L373.438502,119.64864 Z M425.340242,119.64864 C425.340242,116.868529 424.197121,114.445114 421.910846,112.378321 C419.62457,110.311528 415.500192,108.619709 409.537585,107.302815 C402.514147,105.839598 397.292373,103.836851 393.872105,101.294513 C390.451837,98.7521747 388.741728,95.1947836 388.741728,90.6222328 C388.741728,86.0862624 390.653026,82.2453773 394.475678,79.0994624 C398.298331,75.9535474 403.355496,74.3806135 409.647326,74.3806135 C416.26838,74.3806135 421.554169,76.054142 425.504853,79.4012492 C429.455537,82.7483564 431.339399,86.8727353 431.156497,91.7745098 L431.046757,92.1037318 L424.956149,92.1037318 C424.956149,88.8480756 423.55697,86.0131367 420.758569,83.5988299 C417.960168,81.184523 414.256457,79.9773877 409.647326,79.9773877 C404.891873,79.9773877 401.307047,81.0199137 398.89274,83.1049968 C396.478433,85.19008 395.271298,87.6226405 395.271298,90.4027514 C395.271298,93.1097015 396.304679,95.3502178 398.371472,97.1243675 C400.438265,98.8985172 404.562644,100.462306 410.744733,101.815781 C417.69501,103.352158 422.953364,105.49208 426.519954,108.23561 C430.086544,110.979141 431.869812,114.673706 431.869812,119.319418 C431.869812,124.257773 429.867065,128.272412 425.86151,131.363457 C421.855956,134.454501 416.561021,136 409.976548,136 C402.770208,136 397.109475,134.280747 392.994179,130.842188 C388.878883,127.40363 386.931006,123.306686 387.150489,118.551233 L387.260229,118.222011 L393.295966,118.222011 C393.552029,122.501919 395.298717,125.611207 398.536083,127.549968 C401.773449,129.48873 405.586899,130.458096 409.976548,130.458096 C414.732001,130.458096 418.481436,129.39728 421.224967,127.275617 C423.968497,125.153953 425.340242,122.611653 425.340242,119.64864 L425.340242,119.64864 Z M479.272184,134.847723 C478.869799,132.76264 478.568016,130.970227 478.366823,129.47043 C478.165631,127.970633 478.065037,126.434279 478.065037,124.861322 C476.016534,128.080398 473.145015,130.741582 469.450394,132.844956 C465.755773,134.948329 461.512509,136 456.720476,136 C450.904191,136 446.395724,134.454501 443.194938,131.363457 C439.994153,128.272412 438.393784,124.074874 438.393784,118.770715 C438.393784,113.466556 440.716605,109.168423 445.362317,105.876186 C450.008028,102.583949 456.043705,100.937856 463.469527,100.937856 L478.065037,100.937856 L478.065037,93.5852309 C478.065037,89.3419037 476.720727,86.0131367 474.032067,83.5988299 C471.343407,81.184523 467.548247,79.9773877 462.646472,79.9773877 C458.147082,79.9773877 454.516531,81.0747835 451.754711,83.2696078 C448.99289,85.4644322 447.612,88.2262115 447.612,91.5550285 L441.521393,91.5550285 L441.411653,91.2258065 C441.19217,86.7629969 443.103468,82.8398071 447.145603,79.4561195 C451.187738,76.072432 456.464382,74.3806135 462.975694,74.3806135 C469.487007,74.3806135 474.717926,76.0449971 478.66861,79.373814 C482.619294,82.702631 484.594606,87.4763025 484.594606,93.6949715 L484.594606,122.88599 C484.594606,124.971073 484.713491,127.001255 484.951264,128.976597 C485.189036,130.951939 485.58227,132.908961 486.130976,134.847723 L479.272184,134.847723 Z M457.43379,130.183744 C462.481887,130.183744 466.85318,128.985754 470.547801,126.589738 C474.242422,124.193721 476.748142,121.111868 478.065037,117.344086 L478.065037,105.985927 L463.414657,105.985927 C458.073918,105.985927 453.666045,107.257077 450.190906,109.799415 C446.715768,112.341753 444.978224,115.405316 444.978224,118.990196 C444.978224,122.355593 446.084765,125.062503 448.29788,127.111006 C450.510994,129.159508 453.556267,130.183744 457.43379,130.183744 L457.43379,130.183744 Z" id="Glossa"></path>
        </g>
    </g>
</svg>